<?xml version="1.0" encoding="UTF-8"?>
<svg version="1.1" xmlns="http://www.w3.org/2000/svg" width="261" height="261">
<path d="M0 0 C86.13 0 172.26 0 261 0 C261 86.13 261 172.26 261 261 C174.87 261 88.74 261 0 261 C0 174.87 0 88.74 0 0 Z " fill="#131213" transform="translate(0,0)"/>
<path d="M0 0 C86.13 0 172.26 0 261 0 C261 86.13 261 172.26 261 261 C174.87 261 88.74 261 0 261 C0 174.87 0 88.74 0 0 Z M64.8125 26.1875 C60.57950634 32.75593843 59.44043489 40.46412974 58.01000977 48.03588867 C55.97031657 58.71411446 53.99721168 67.66129721 48.01953125 76.81640625 C34.47274155 98.17159697 31.7615346 126.01172826 37.01953125 150.3515625 C39.5435487 159.74372304 43.45276338 168.42797522 48 177 C34.21749566 178.09772158 24.11186916 172.70843159 13.7421875 164.1328125 C10.35782263 161.22300802 7.09252734 158.22138264 4 155 C8.0094192 170.03532201 19.05113818 183.52728795 32 192 C32.55502197 192.37632568 33.11004395 192.75265137 33.68188477 193.14038086 C39.57675517 197.01250885 45.77054293 199.46069036 52.37304688 201.87304688 C53.18451172 202.19208984 53.99597656 202.51113281 54.83203125 202.83984375 C55.56139893 203.11175537 56.2907666 203.38366699 57.04223633 203.66381836 C59 205 59 205 62 211 C48.635 211.99 48.635 211.99 35 213 C38.31508238 215.21005492 40.21617676 215.52288287 44.125 216.0625 C45.36636719 216.23394531 46.60773437 216.40539062 47.88671875 216.58203125 C50.7496956 216.91325608 53.5759625 217.07361141 56.45703125 217.13671875 C69.34431437 217.4307891 69.34431437 217.4307891 72.8125 220.6875 C73.29847656 221.22246094 73.78445312 221.75742188 74.28515625 222.30859375 C83.70832192 231.602969 97.6145855 232.27748408 110.01391602 232.24365234 C116.59781083 232.12950858 123.00219894 231.34878731 129.51953125 230.4609375 C138.52810727 229.26788254 145.57324935 230.25173754 154 234 C154.33 234.66 154.66 235.32 155 236 C153.845 236.12375 152.69 236.2475 151.5 236.375 C148.66962403 236.67825457 146.20056199 237.22928936 143.4453125 238.01953125 C138.11909393 239.37772938 132.84462291 239.34010693 127.375 239.3125 C125.79235352 239.31056641 125.79235352 239.31056641 124.17773438 239.30859375 C116.11680317 239.20974726 108.75934409 238.29501727 101 236 C108.6088678 244.48537953 122.19530026 249.40795048 133.37451172 250.15966797 C143.88388539 250.63140555 153.98498036 250.56259477 164 247 C165.28197266 246.56494141 165.28197266 246.56494141 166.58984375 246.12109375 C170.95553575 244.51338899 174.77586754 242.57573996 178.6875 240.0625 C182.76434691 237.49844534 186.85537596 235.95476297 191.4375 234.5625 C201.29241961 231.52177189 208.78819681 226.07553601 216.74609375 219.68359375 C219.11746147 217.91226015 221.55312002 216.46244156 224.125 215 C234.01778836 209.18071273 240.60537891 200.54643012 243.875 189.5 C246.49606292 177.32068968 246.38543991 164.38588376 241 153 C240.31421875 151.94425781 239.6284375 150.88851562 238.921875 149.80078125 C236.33304236 145.35597517 236.26422595 140.91852675 236 135.875 C235.01877417 122.82627914 232.18841353 108.40983931 223.39784241 98.12561035 C221.69327086 95.53357644 221.75539924 94.46449687 222.16967773 91.43164062 C222.34852005 90.10966675 222.34852005 90.10966675 222.53097534 88.76098633 C223.31070721 84.17097385 224.25900712 79.63449924 225.28515625 75.09375 C225.73788504 73.0300038 226.19035105 70.96619994 226.64257812 68.90234375 C227.35198576 65.69588998 228.06468742 62.49023412 228.7824707 59.28564453 C229.4799748 56.16111331 230.16450286 53.03394552 230.84765625 49.90625 C231.06325699 48.96116577 231.27885773 48.01608154 231.50099182 47.0423584 C234.02090953 36.67561366 234.02090953 36.67561366 231.64393616 26.78674316 C229.10598778 23.69689396 226.9931612 21.22227209 222.86328125 20.76171875 C216.95618438 20.58984304 212.64725335 21.11459146 208 25 C205.16123078 27.70196106 202.40687364 30.46753083 199.6796875 33.28125 C197.5759912 35.41561243 195.47627832 37.38717575 193.1875 39.3125 C186.74975964 44.79200227 180.93546244 50.98951065 175 57 C174.4416748 56.8131665 173.88334961 56.62633301 173.30810547 56.43383789 C152.66048557 49.53606144 135.10604438 45.42632332 113 48 C112.78601563 47.46890625 112.57203125 46.9378125 112.3515625 46.390625 C110.48540886 43.08979834 107.96266812 40.48880767 105.375 37.75 C104.56748291 36.88882568 104.56748291 36.88882568 103.74365234 36.01025391 C102.66446563 34.86335604 101.58264287 33.71893222 100.49804688 32.57714844 C99.20565319 31.21651232 97.92226976 29.84732826 96.640625 28.4765625 C91.15386333 22.75586913 87.1304146 19.89292325 79 19.5625 C72.48579917 19.73986685 69.37938611 21.62061389 64.8125 26.1875 Z " fill="#F6F1EC" transform="translate(0,0)"/>
<path d="M0 0 C2 2 2 2 3 4 C3.66 4 4.32 4 5 4 C5.33 3.34 5.66 2.68 6 2 C10.93864302 5.9178062 11.20362172 13.08612689 12 19 C12.13193402 21.54037666 12.2364822 24.08233576 12.3125 26.625 C12.62391528 33.13764136 14.25237864 37.61831827 17.52734375 43.21875 C20.72196983 49.25210218 21.36257426 55.00330135 21.3125 61.6875 C21.30686035 62.47769531 21.3012207 63.26789063 21.29541016 64.08203125 C21.02797285 77.08848702 17.26473054 87.55849873 8.375 97.1875 C4.35404534 101.01661522 -0.14910204 103.55053984 -4.9921875 106.21484375 C-7.92816842 107.95736749 -10.39903563 109.85878903 -13 112.0625 C-19.89375421 117.75590404 -27.49163855 121.30501741 -36 123.9375 C-40.41607347 125.31177286 -44.05769066 127.0822556 -48 129.5 C-62.31029087 138.25143772 -80.61775038 140.60446198 -97.06640625 137.31640625 C-106.39146815 134.80541193 -116.35274203 131.24020587 -123 124 C-122.2678125 124.2165625 -121.535625 124.433125 -120.78125 124.65625 C-106.42293352 128.34838852 -89.41373503 129.31722237 -75.171875 124.65625 C-73 124 -73 124 -69 124 C-70.47680837 121.04638327 -72.42133328 120.92454547 -75.5 119.875 C-83.75407712 117.2786471 -89.93636533 117.84189873 -98.4375 119 C-115.68379433 121.34049532 -132.80309239 121.50822562 -148 112 C-148.48218994 111.5059668 -148.96437988 111.01193359 -149.46118164 110.50292969 C-154.90695662 104.92584052 -160.41338001 104.98711352 -167.9375 104.75 C-175.22064642 104.42100411 -181.9909035 104.09842889 -189 102 C-189 101.67 -189 101.34 -189 101 C-187.80503906 100.93941406 -186.61007813 100.87882812 -185.37890625 100.81640625 C-173.66471039 100.20784423 -173.66471039 100.20784423 -162 99 C-163.1331656 95.67604757 -164.11402906 93.51838725 -167.203125 91.7109375 C-169.44774162 90.72980005 -171.69277235 89.82228239 -174 89 C-173.34 87.35 -172.68 85.7 -172 84 C-171.47792969 84.39832031 -170.95585937 84.79664063 -170.41796875 85.20703125 C-169.68191406 85.73683594 -168.94585937 86.26664062 -168.1875 86.8125 C-167.47980469 87.33457031 -166.77210938 87.85664063 -166.04296875 88.39453125 C-157.67065762 92.81175831 -148.94471017 93.52481381 -139.625 93.4375 C-138.460896 93.42992676 -137.29679199 93.42235352 -136.09741211 93.41455078 C-116.20540685 93.05058354 -96.70328921 89.46413437 -77.35961914 85.01904297 C-70.90605273 83.54325534 -64.60833909 82.45603577 -58 82 C-58 82.66 -58 83.32 -58 84 C-58.82541039 84.20551987 -58.82541039 84.20551987 -59.66749573 84.41519165 C-65.52684033 85.87438755 -71.38572899 87.33540426 -77.24438477 88.79736328 C-79.41517263 89.3388224 -81.58606688 89.87985525 -83.75708008 90.42041016 C-86.92298793 91.20876746 -90.08853579 91.99855038 -93.25390625 92.7890625 C-94.82756454 93.18161224 -94.82756454 93.18161224 -96.43301392 93.58209229 C-101.82530988 94.93291784 -107.20855843 96.31147447 -112.58154297 97.73730469 C-113.6337352 98.0160141 -114.68592743 98.29472351 -115.77000427 98.58187866 C-117.76930794 99.11368141 -119.767475 99.64978178 -121.76429749 100.19082642 C-122.65797531 100.42868866 -123.55165314 100.6665509 -124.47241211 100.91162109 C-125.25313583 101.12241302 -126.03385956 101.33320496 -126.83824158 101.55038452 C-129 102 -129 102 -133 102 C-133 102.66 -133 103.32 -133 104 C-128.84148622 104.05030772 -124.68314448 104.08613707 -120.52441406 104.10986328 C-119.11650499 104.11977813 -117.70861567 104.13331412 -116.30078125 104.15087891 C-106.63355567 104.26826665 -97.55871019 103.58083897 -88 102 C-80.07329158 100.97656158 -73.92086758 103.64278202 -66.671875 106.58984375 C-56.08175821 110.65689924 -43.40696818 110.44877365 -32.82421875 106.40625 C-26.94784952 103.48025702 -21.49543815 99.6504945 -16.98828125 94.86328125 C-14.76508258 92.77985145 -13.06885246 92.10862527 -10.1875 91.1875 C-3.29518334 88.558472 1.06927815 84.44714019 4.4375 77.875 C7.5011689 69.53139107 6.31384773 59.74669481 6 51 C5.18015625 51.09539062 4.3603125 51.19078125 3.515625 51.2890625 C2.43796875 51.39992187 1.3603125 51.51078125 0.25 51.625 C-0.81734375 51.74101562 -1.8846875 51.85703125 -2.984375 51.9765625 C-6.05405258 52.0004201 -7.50396926 51.73482987 -10 50 C-10.6875 48 -10.6875 48 -11 46 C-11.33 45.34 -11.66 44.68 -12 44 C-11.0925 43.443125 -10.185 42.88625 -9.25 42.3125 C-5.57596747 39.69828455 -3.02076161 37.04152322 -1 33 C-0.46802869 27.19946668 -0.82710473 22.00027388 -2.5625 16.4375 C-4.23161361 11.02458015 -3.99545305 6.52896214 -3 1 C-2.01 0.67 -1.02 0.34 0 0 Z " fill="#161211" transform="translate(224,112)"/>
<path d="M0 0 C2.93454393 1.46727196 3.10194373 3.46913145 4.25 6.5 C10.23088541 21.21681424 19.67333959 30.68225191 34.10791016 37.20166016 C59.36683856 47.85929833 92.76754419 39.61717776 118.51953125 34.515625 C128.14883295 33.08906178 128.14883295 33.08906178 132.46875 35.21484375 C134.69388795 37.1019319 136.87675927 38.99798235 139 41 C139.78632813 41.73347656 140.57265625 42.46695313 141.3828125 43.22265625 C146.84957834 48.77513793 146.84957834 48.77513793 147.4375 53.5625 C144.5648629 60.43184958 139.81627172 65.355254 133 68.390625 C129.87708125 69.34213931 127.24206177 69.27017181 124 69 C124 69.66 124 70.32 124 71 C131.48606231 70.26532722 137.01137772 69.02168354 143.0625 64.4375 C144.967822 63.023874 146.85260963 61.99700267 149 61 C150.3921875 62.0209375 150.3921875 62.0209375 151.8125 63.0625 C153.3903125 64.0215625 153.3903125 64.0215625 155 65 C155.99 64.67 156.98 64.34 158 64 C157.05125 63.401875 156.1025 62.80375 155.125 62.1875 C152 60 152 60 150 57 C150.31894254 52.96006118 151.93751126 50.41084699 154 47 C157.28684244 40.64480465 159.47066038 35.14608487 160 28 C162.41435419 25.58564581 168.20318055 26.01967455 171.53125 25.9375 C173.68847157 25.9375 175.84328131 25.95506836 178 26 C180.79466367 34.38399102 180.30683573 46.94286912 176.37890625 54.89453125 C171.71105416 62.02193147 166.45415736 65.53300381 158.66796875 68.72265625 C155.16880922 70.39794932 152.70239662 72.6696705 149.88671875 75.296875 C140.73649226 83.55670678 130.17122712 85.75993346 118.11328125 85.359375 C110.48111915 84.86291572 103.06401684 82.54631197 96.1875 79.25 C90.09174654 76.85950845 84.44687394 77.90567811 78.125 79 C70.70987945 80.15146696 63.37070218 80.19145813 55.875 80.1875 C54.67633301 80.18814453 53.47766602 80.18878906 52.24267578 80.18945312 C42.78052192 80.13032306 42.78052192 80.13032306 39 79 C39 78.34 39 77.68 39 77 C42.21289062 76.17382812 42.21289062 76.17382812 45.42578125 75.34765625 C46.1083046 75.17209198 46.79082794 74.99652771 47.49403381 74.81564331 C51.3396369 73.8265314 55.18547935 72.83836538 59.03173828 71.85180664 C66.52190351 69.9295958 74.01034492 68.00172659 81.49046326 66.04072571 C84.68372806 65.20390644 87.87812023 64.37143855 91.07260132 63.53927612 C92.60200129 63.13953806 94.13083751 62.73763655 95.65908813 62.33352661 C97.79997631 61.76763565 99.94269338 61.20923423 102.0859375 60.65234375 C103.3032959 60.33257568 104.5206543 60.01280762 105.77490234 59.68334961 C108.64518218 59.07518055 111.08257893 58.85430117 114 59 C114 58.34 114 57.68 114 57 C113.26700684 57.16081055 112.53401367 57.32162109 111.77880859 57.48730469 C95.90663789 60.95833625 80.0387616 64.38356255 64 67 C63.28972656 67.11859375 62.57945313 67.2371875 61.84765625 67.359375 C44.63610146 70.13436656 19.76247212 73.82396892 4.68359375 63.3984375 C2.6875 61.75 2.6875 61.75 0 59 C2.99593309 57.50203346 4.98917212 58.60576193 8.203125 59.41015625 C15.773271 61.10023087 22.98431972 61.50101483 30.75 61.4375 C31.75211517 61.43194092 31.75211517 61.43194092 32.7744751 61.42626953 C54.18388991 61.25928027 74.50609807 56.93577075 95.14990234 51.64257812 C95.83435928 51.46861511 96.51881622 51.2946521 97.22401428 51.11541748 C99.08931399 50.63941505 100.95256988 50.15542395 102.81567383 49.67089844 C105.668018 49.06994453 108.10080236 48.85949072 111 49 C111 48.34 111 47.68 111 47 C109.88882813 47.20496094 108.77765625 47.40992188 107.6328125 47.62109375 C106.13024545 47.89343403 104.62763913 48.16555773 103.125 48.4375 C102.39796875 48.57220703 101.6709375 48.70691406 100.921875 48.84570312 C90.35526455 50.74583921 79.88995794 51.23917093 69.17089844 51.29516602 C67.65094663 51.30664162 66.13103371 51.32702307 64.61132812 51.35668945 C45.4484522 51.72856226 27.47564454 48.00085911 13.1875 34.28515625 C5.15364372 25.89264567 -0.23995176 16.07676782 -0.0625 4.1875 C-0.05347656 3.39730469 -0.04445312 2.60710937 -0.03515625 1.79296875 C-0.02355469 1.20128906 -0.01195312 0.60960937 0 0 Z " fill="#F1EEE9" transform="translate(52,137)"/>
<path d="M0 0 C4.93035341 0.42260172 6.67251549 2.48846249 10 6 C10.45592529 6.47880615 10.91185059 6.9576123 11.3815918 7.45092773 C17.39924731 13.8049159 23.1731729 20.2970467 28.65625 27.12109375 C31.37942649 30.46606221 34.18334757 33.73379711 37 37 C38.5145911 38.7658163 40.02799821 40.5326399 41.54101562 42.29980469 C42.49546513 43.4120514 43.45240146 44.52217015 44.41210938 45.62988281 C45.70072361 47.12024978 46.97574338 48.62233889 48.25 50.125 C48.97703125 50.97320312 49.7040625 51.82140625 50.453125 52.6953125 C52 55 52 55 52 59 C50.7625 59.391875 49.525 59.78375 48.25 60.1875 C46.49723704 60.78360347 44.74745615 61.38851463 43 62 C42.08347656 62.31710938 41.16695312 62.63421875 40.22265625 62.9609375 C26.83594467 68.02812229 16.21344533 77.20342999 6 87 C-5.77169217 83.23238871 -5.77169217 83.23238871 -9.62109375 77.6484375 C-15.67594159 65.74457234 -12.64542272 53.07579172 -10.3125 40.5 C-10.0393745 38.99145753 -9.76626263 37.48291258 -9.49316406 35.97436523 C-3.99614746 5.99422119 -3.99614746 5.99422119 0 0 Z " fill="#F3F0EB" transform="translate(77,34)"/>
<path d="M0 0 C3.70655356 2.06660361 6.60681748 4.30255368 9.3125 7.5625 C10.04919922 8.43068359 10.04919922 8.43068359 10.80078125 9.31640625 C13.53063341 13.1488697 13.11694033 17.20245435 13.0625 21.6875 C13.05798828 22.38939453 13.05347656 23.09128906 13.04882812 23.81445312 C13.03706927 25.54300538 13.01913454 27.27151365 13 29 C7.28107458 32.73756543 -1.42700983 31.74487426 -8 31 C-16.80646915 28.5496124 -23.03866264 20.37085931 -28.96484375 13.83203125 C-31.28428662 11.74408748 -33.3318678 10.82510134 -36.25 9.75 C-37.58804688 9.24726563 -37.58804688 9.24726563 -38.953125 8.734375 C-39.62859375 8.49203125 -40.3040625 8.2496875 -41 8 C-41 7.34 -41 6.68 -41 6 C-40.45214844 6.06960937 -39.90429688 6.13921875 -39.33984375 6.2109375 C-33.45563969 6.61278558 -29.18618522 5.42225602 -23.875 3 C-16.03066093 -0.47921404 -8.54041234 -1.44371405 0 0 Z " fill="#E7E7E5" transform="translate(163,134)"/>
<path d="M0 0 C15.83223335 -0.74602147 30.40255568 3.84748061 42.4375 14.4375 C43.97963561 15.9367284 45.50219542 17.45648146 47 19 C47.64582031 19.63679688 48.29164063 20.27359375 48.95703125 20.9296875 C59.51927745 32.02119658 63.36630826 46.40431926 63.296875 61.3671875 C62.6871682 68.8280734 60.35942807 75.9217158 58 83 C57.34 83 56.68 83 56 83 C56.165 81.700625 56.33 80.40125 56.5 79.0625 C58.22655492 60.89501916 56.6596287 45.18029824 44.859375 30.30078125 C35.10014133 19.19716335 25.00504444 11.65996961 10.62133789 7.82397461 C6.27908177 6.61942453 3.23455451 5.1657342 0 2 C0 1.34 0 0.68 0 0 Z " fill="#EDE9E7" transform="translate(130,66)"/>
<path d="M0 0 C0.66 0 1.32 0 2 0 C2.12117188 1.01320313 2.24234375 2.02640625 2.3671875 3.0703125 C2.53613783 4.4219151 2.70542669 5.77347542 2.875 7.125 C2.95363281 7.79015625 3.03226563 8.4553125 3.11328125 9.140625 C3.6461304 13.32144141 4.66907532 17.01813518 6 21 C6.63019848 26.21745722 6.67509256 30.59788468 4.375 35.375 C0.9139752 39.2003432 -2.97998919 43.38064168 -8 45 C-10.4453125 44.84765625 -10.4453125 44.84765625 -13 44 C-16.92496639 38.66010745 -18.89811471 32.06023163 -18.4609375 25.4609375 C-16.65881603 15.83944151 -10.67298584 10.33492923 -3.546875 4.25 C-0.97400322 2.25986066 -0.97400322 2.25986066 0 0 Z " fill="#E5E3E1" transform="translate(218,113)"/>
<path d="M0 0 C-0.63637975 5.68041239 -1.58630945 11.18903821 -2.8125 16.76953125 C-2.98628174 17.57235031 -3.16006348 18.37516937 -3.33911133 19.20231628 C-3.70391073 20.88417955 -4.0703872 22.56567987 -4.43847656 24.24682617 C-5.00205706 26.82189899 -5.56003349 29.39813926 -6.1171875 31.97460938 C-6.47363243 33.6146542 -6.83039208 35.25463066 -7.1875 36.89453125 C-7.35419189 37.66328079 -7.52088379 38.43203033 -7.69262695 39.22407532 C-8.34727929 42.20689178 -9.03346961 45.10040882 -10 48 C-13.25222629 46.58567643 -15.27152932 44.89054838 -17.6875 42.3125 C-21.80056628 38.07549952 -26.26150205 34.50999848 -31 31 C-29.34505714 26.73294513 -26.15086959 23.8628007 -22.96875 20.703125 C-22.37703003 20.10949158 -21.78531006 19.51585815 -21.17565918 18.90423584 C-19.92734419 17.65456282 -18.67651177 16.40740008 -17.42333984 15.16259766 C-15.49992003 13.24992048 -13.58743901 11.32676881 -11.67578125 9.40234375 C-10.46157861 8.18946202 -9.24675607 6.97720048 -8.03125 5.765625 C-7.45725464 5.18758118 -6.88325928 4.60953735 -6.29187012 4.01397705 C-2.22993434 0 -2.22993434 0 0 0 Z " fill="#F1EFEA" transform="translate(220,36)"/>
<path d="M0 0 C-0.66 0.99 -1.32 1.98 -2 3 C-2 3.99 -2 4.98 -2 6 C-1.01 6.66 -0.02 7.32 1 8 C-69.74388875 21.76420861 -69.74388875 21.76420861 -88 12 C-90.66680755 10.15617016 -92.72018044 8.33283862 -95 6 C-92.00406691 4.50203346 -90.01082788 5.60576193 -86.796875 6.41015625 C-79.22632735 8.10032054 -72.01596857 8.49909525 -64.25 8.4375 C-63.5872406 8.43512329 -62.9244812 8.43274658 -62.24163818 8.43029785 C-44.57655524 8.33231946 -27.24175631 5.68475869 -10.15869141 1.21972656 C-6.68443924 0.31593 -3.59304095 -0.19162885 0 0 Z " fill="#DCDBDB" transform="translate(147,190)"/>
<path d="M0 0 C2.93454393 1.46727196 3.10194373 3.46913145 4.25 6.5 C10.20238331 21.1466808 19.63139067 30.6733594 33.99365234 37.20166016 C39.13251611 39.24645019 44.54471135 40.19305438 50 41 C50 41.33 50 41.66 50 42 C49.07767578 42.02126953 49.07767578 42.02126953 48.13671875 42.04296875 C45.66500527 42.18882744 43.40322852 42.39493183 41 43 C38.8613923 45.38987933 38.8613923 45.38987933 38 48 C24.84543143 45.00384013 13.94200656 37.40763673 6.25 26.3125 C1.54109185 18.20360055 -0.63111961 9.30901422 0 0 Z " fill="#EBEBE9" transform="translate(52,137)"/>
<path d="M0 0 C0.495 1.485 0.495 1.485 1 3 C-15.30138113 8.36986673 -34.62581835 10.03259324 -51 4 C-49 3 -47 2 -45 1 C-47.64 0.67 -50.28 0.34 -53 0 C-53 -0.33 -53 -0.66 -53 -1 C-52.2793335 -1.05534912 -51.55866699 -1.11069824 -50.81616211 -1.16772461 C-47.52308909 -1.42197408 -44.23029747 -1.67970742 -40.9375 -1.9375 C-39.80376953 -2.02451172 -38.67003906 -2.11152344 -37.50195312 -2.20117188 C-9.13518603 -4.43412439 -9.13518603 -4.43412439 0 0 Z " fill="#ECE7E3" transform="translate(154,233)"/>
<path d="M0 0 C-0.99 0.99 -1.98 1.98 -3 3 C-1.68 3.33 -0.36 3.66 1 4 C1 4.66 1 5.32 1 6 C0.34 6 -0.32 6 -1 6 C-0.65775391 6.85271484 -0.65775391 6.85271484 -0.30859375 7.72265625 C1.66411246 13.02153974 2.29178872 16.4805391 1 22 C0.34 22 -0.32 22 -1 22 C-1 22.66 -1 23.32 -1 24 C-4.67611089 24.3601953 -6.41381006 24.44391083 -9.4140625 22.171875 C-10.14367187 21.37265625 -10.87328125 20.5734375 -11.625 19.75 C-12.35976562 18.96109375 -13.09453125 18.1721875 -13.8515625 17.359375 C-15.21945849 15.85717649 -16.58437675 14.3522571 -17.9453125 12.84375 C-20.27512655 10.75311838 -22.32307086 9.82834231 -25.25 8.75 C-26.58804688 8.24726563 -26.58804688 8.24726563 -27.953125 7.734375 C-28.62859375 7.49203125 -29.3040625 7.2496875 -30 7 C-30 6.34 -30 5.68 -30 5 C-29.14341797 5.08701172 -29.14341797 5.08701172 -28.26953125 5.17578125 C-21.33622193 5.56157748 -16.35888723 3.77833034 -10.0078125 1.11328125 C-6.35478682 -0.23881267 -3.82629239 -0.44491772 0 0 Z " fill="#EFEEE9" transform="translate(152,135)"/>
<path d="M0 0 C0.33 0 0.66 0 1 0 C1.80058494 8.48620041 -1.2977481 15.54874834 -6.375 22.3125 C-8.23260707 24.91514498 -8.23260707 24.91514498 -8.1875 28.0625 C-6.51930391 32.18909032 -3.74638919 33.78933693 0 36 C-0.495 36.99 -0.495 36.99 -1 38 C-4.82097239 37.46930939 -7.06171403 36.50298434 -10 34 C-13.90714478 35.84232112 -17.33095318 38.21308575 -20.87890625 40.66015625 C-24.21392688 42.76680832 -26.83480988 43.11833609 -30.6875 43.0625 C-31.89986328 43.04896484 -31.89986328 43.04896484 -33.13671875 43.03515625 C-33.75160156 43.02355469 -34.36648437 43.01195312 -35 43 C-35 42.34 -35 41.68 -35 41 C-34.3709375 40.92523438 -33.741875 40.85046875 -33.09375 40.7734375 C-24.79958916 39.49933448 -19.79101371 36.4189918 -14.5 29.9375 C-12.87195854 26.74925214 -12.50447907 25.49961657 -13 22 C-14.94633801 19.23295457 -14.94633801 19.23295457 -17.5 16.6875 C-18.3353125 15.80449219 -19.170625 14.92148438 -20.03125 14.01171875 C-20.6809375 13.34785156 -21.330625 12.68398437 -22 12 C-15.22785545 7.48523697 -7.97711521 6.61401055 0 7 C0 4.69 0 2.38 0 0 Z " fill="#F6AC6D" transform="translate(211,165)"/>
<path d="M0 0 C3.71762213 1.62483484 7.01375922 3.42777849 9.203125 6.91796875 C10.57302157 10.49715929 10.36467943 13.17086596 10 17 C8.4375 19.0625 8.4375 19.0625 6 20 C2.45842595 20.13116941 0.11260538 19.92113376 -2.6796875 17.609375 C-7.12032612 12.70478906 -10 7.7389097 -10 1 C-6.74573876 -0.62713062 -3.51606564 -0.55322711 0 0 Z " fill="#13120F" transform="translate(161,140)"/>
<path d="M0 0 C0 0.66 0 1.32 0 2 C-0.55915604 2.13923386 -1.11831207 2.27846771 -1.69441223 2.42192078 C-7.61802107 3.89720736 -13.5411833 5.37427746 -19.46411133 6.85229492 C-21.66224394 7.40058597 -23.86048276 7.94845141 -26.05883789 8.49584961 C-28.19456206 9.02770879 -30.330132 9.56018771 -32.46554565 10.09329224 C-34.58213205 10.62156005 -36.69909586 11.14831798 -38.81643677 11.67355347 C-43.78794508 12.91358399 -48.74148497 14.19053535 -53.67333984 15.58056641 C-54.54713791 15.82370071 -55.42093597 16.06683502 -56.32121277 16.31733704 C-57.94251959 16.77217904 -59.56060382 17.23873667 -61.17451477 17.71916199 C-66.44934886 19.19215235 -66.44934886 19.19215235 -69.51098633 18.1237793 C-70.00236084 17.75293213 -70.49373535 17.38208496 -71 17 C-69.68 16.34 -68.36 15.68 -67 15 C-75.91 14.67 -84.82 14.34 -94 14 C-94 13.67 -94 13.34 -94 13 C-85.09 12.67 -76.18 12.34 -67 12 C-67 11.67 -67 11.34 -67 11 C-66.26813477 10.91024902 -65.53626953 10.82049805 -64.78222656 10.72802734 C-47.15550559 8.52811175 -29.99678719 5.57243805 -12.67773438 1.60083008 C-8.35080075 0.62995265 -4.45086547 -0.12716758 0 0 Z " fill="#1B1917" transform="translate(166,194)"/>
<path d="M0 0 C5.39285432 4.47827669 7.28327308 12.91256096 8.8125 19.5 C8.874375 20.655 8.93625 21.81 9 23 C9.061875 23.9178125 9.12375 24.835625 9.1875 25.78125 C9.57914228 35.86603876 7.16788273 44.49635182 4 54 C3.34 54 2.68 54 2 54 C2.165 52.700625 2.33 51.40125 2.5 50.0625 C3.74358829 36.97698144 4.20998685 24.82711313 -2.1328125 12.86328125 C-3 11 -3 11 -3 8 C-2.01 7.34 -1.02 6.68 0 6 C-0.185625 5.38125 -0.37125 4.7625 -0.5625 4.125 C-1 2 -1 2 0 0 Z " fill="#E4E0DE" transform="translate(184,95)"/>
<path d="M0 0 C3 1 3 1 4.6875 4 C6.35623005 8.32272094 6.73894906 12.42515809 6 17 C4.375 20.5 4.375 20.5 2 23 C-1.25 23.875 -1.25 23.875 -4 24 C-7.37244747 20.12793068 -7.45017417 17.44856511 -7.2890625 12.46875 C-6.65049133 7.01500704 -3.98935673 3.57666465 0 0 Z " fill="#181715" transform="translate(214,126)"/>
<path d="M0 0 C10.21378319 -0.48127774 18.57422568 1.12177443 28 5 C27.34 5.66 26.68 6.32 26 7 C26.32041397 9.60280568 26.32041397 9.60280568 27 12 C27.66 12 28.32 12 29 12 C29 12.99 29 13.98 29 15 C25.8814241 13.79280933 22.8457149 12.4661686 19.8125 11.0625 C16.50211779 9.56481456 13.25408624 8.45565988 9.75 7.5 C5.75634337 6.36162124 2.9490311 5.04733214 0 2 C0 1.34 0 0.68 0 0 Z " fill="#E6E3E3" transform="translate(130,66)"/>
<path d="M0 0 C0 0.66 0 1.32 0 2 C-4.67419829 3.15255254 -9.35147444 4.29131285 -14.03198242 5.41796875 C-15.62044295 5.80230752 -17.20803415 6.19025929 -18.79467773 6.58203125 C-21.0887335 7.14778769 -23.38570637 7.70004038 -25.68359375 8.25 C-26.38085068 8.42499023 -27.0781076 8.59998047 -27.79649353 8.78027344 C-32.95668748 9.99565044 -37.69924061 10.14566277 -43 10 C-42.01 9.34 -41.02 8.68 -40 8 C-39.34 7.34 -38.68 6.68 -38 6 C-42.95 5.67 -47.9 5.34 -53 5 C-53 4.67 -53 4.34 -53 4 C-52.32235596 3.98541748 -51.64471191 3.97083496 -50.9465332 3.95581055 C-37.2156345 3.62819531 -23.82573155 2.84381446 -10.265625 0.62109375 C-6.81150284 0.06743169 -3.50620124 -0.13006876 0 0 Z " fill="#212121" transform="translate(163,184)"/>
<path d="M0 0 C10.56 0 21.12 0 32 0 C32 0.66 32 1.32 32 2 C28.87462371 5.05281211 26.52907465 5.37595583 22.24609375 5.36328125 C21.14458984 5.36263672 20.04308594 5.36199219 18.90820312 5.36132812 C17.76287109 5.34521484 16.61753906 5.32910156 15.4375 5.3125 C13.71370117 5.31733398 13.71370117 5.31733398 11.95507812 5.32226562 C3.40071124 5.26714082 3.40071124 5.26714082 0 3 C0 2.01 0 1.02 0 0 Z " fill="#F7F5F5" transform="translate(68,200)"/>
<path d="M0 0 C0.66 0 1.32 0 2 0 C1.896875 1.051875 1.79375 2.10375 1.6875 3.1875 C1.63859597 7.10888867 1.63859597 7.10888867 4.3125 9.75 C5.199375 10.4925 6.08625 11.235 7 12 C8 13 9 14 10 15 C8.375 15.75 8.375 15.75 6 16 C2.75 14.0625 2.75 14.0625 0 12 C-3.90714478 13.84232112 -7.33095318 16.21308575 -10.87890625 18.66015625 C-14.21392688 20.76680832 -16.83480988 21.11833609 -20.6875 21.0625 C-21.89986328 21.04896484 -21.89986328 21.04896484 -23.13671875 21.03515625 C-23.75160156 21.02355469 -24.36648437 21.01195312 -25 21 C-25 20.34 -25 19.68 -25 19 C-24.3709375 18.92523438 -23.741875 18.85046875 -23.09375 18.7734375 C-15.55389498 17.61520676 -10.09785773 15.16988992 -5.46484375 8.93359375 C-4.23576683 6.98785391 -3.1088852 5.01576418 -2 3 C-1.34 2.01 -0.68 1.02 0 0 Z " fill="#1F1B17" transform="translate(201,187)"/>
<path d="M0 0 C0.66 0.66 1.32 1.32 2 2 C1.67 2.99 1.34 3.98 1 5 C3.97 5.495 3.97 5.495 7 6 C7 6.33 7 6.66 7 7 C2.58334712 7.02902168 -1.83328123 7.04680608 -6.25 7.0625 C-8.13138672 7.07506836 -8.13138672 7.07506836 -10.05078125 7.08789062 C-11.85869141 7.09272461 -11.85869141 7.09272461 -13.703125 7.09765625 C-15.36843262 7.10551147 -15.36843262 7.10551147 -17.06738281 7.11352539 C-19.57157379 7.01658493 -21.6181156 6.73230276 -24 6 C-24 5.34 -24 4.68 -24 4 C-20.75393904 3.1303597 -17.50267592 2.28203087 -14.25 1.4375 C-13.32960938 1.19064453 -12.40921875 0.94378906 -11.4609375 0.68945312 C-10.57148437 0.46064453 -9.68203125 0.23183594 -8.765625 -0.00390625 C-7.94868164 -0.21861572 -7.13173828 -0.4333252 -6.29003906 -0.65454102 C-3.80822353 -1.02893003 -2.33871998 -0.87967621 0 0 Z " fill="#ECE8E7" transform="translate(115,210)"/>
<path d="M0 0 C1.17571451 3.67410785 1.07366746 7.16929183 1 11 C2.32 11.66 3.64 12.32 5 13 C5 10.03 5 7.06 5 4 C5.33 4 5.66 4 6 4 C6.07347656 4.92232422 6.07347656 4.92232422 6.1484375 5.86328125 C6.22320312 6.67152344 6.29796875 7.47976562 6.375 8.3125 C6.44460937 9.11300781 6.51421875 9.91351563 6.5859375 10.73828125 C6.89564426 13.27224441 6.89564426 13.27224441 9 16 C9.99 16.66 10.98 17.32 12 18 C11.67 19.98 11.34 21.96 11 24 C9.02 24.33 7.04 24.66 5 25 C0.75458777 17.64633952 -2.29106555 11.6125512 -1 3 C-0.67 2.01 -0.34 1.02 0 0 Z " fill="#E8E7E4" transform="translate(201,133)"/>
<path d="M0 0 C0.99 0.33 1.98 0.66 3 1 C3.62188935 10.70838367 3.62188935 10.70838367 1.375 15.375 C-1.30114289 18.33284214 -3.73051433 20.70440368 -7 23 C-7.99 22.67 -8.98 22.34 -10 22 C-8.59971159 17.54453688 -6.35550741 15.18343011 -3 12 C-1.55318676 9.10637351 -1.56757624 6.1916991 -1.28125 2.99609375 C-1 1 -1 1 0 0 Z " fill="#EAE9E7" transform="translate(221,133)"/>
<path d="M0 0 C2.02558881 3.34939881 2.21738987 5.86962551 2.125 9.75 C2.10695312 10.73484375 2.08890625 11.7196875 2.0703125 12.734375 C2.03550781 13.85585937 2.03550781 13.85585937 2 15 C0.125 15.625 0.125 15.625 -2 16 C-2.66 15.34 -3.32 14.68 -4 14 C-5.98 14.99 -5.98 14.99 -8 16 C-8.05437607 14.41705218 -8.09296271 12.83355744 -8.125 11.25 C-8.14820313 10.36828125 -8.17140625 9.4865625 -8.1953125 8.578125 C-7.99139502 5.8864142 -7.36551721 4.30095026 -6 2 C-5.67 2.66 -5.34 3.32 -5 4 C-5.33 4.66 -5.66 5.32 -6 6 C-4.7934375 4.7934375 -4.7934375 4.7934375 -3.5625 3.5625 C-2.375 2.375 -1.1875 1.1875 0 0 Z " fill="#11100E" transform="translate(215,130)"/>
<path d="M0 0 C2.97471127 1.48735563 3.23347249 3.63804716 4.4375 6.6875 C6.13489538 10.90085716 7.88073618 14.98455277 10 19 C9.01 19.33 8.02 19.66 7 20 C7.33 20.99 7.66 21.98 8 23 C7.34 23.99 6.68 24.98 6 26 C5.18167278 24.10667466 4.37057732 22.21022267 3.5625 20.3125 C3.11003906 19.25675781 2.65757813 18.20101562 2.19140625 17.11328125 C0.50800687 12.7143655 -0.13255369 8.88109706 -0.0625 4.1875 C-0.05347656 3.39730469 -0.04445312 2.60710937 -0.03515625 1.79296875 C-0.02355469 1.20128906 -0.01195312 0.60960937 0 0 Z " fill="#E4E4E3" transform="translate(52,137)"/>
<path d="M0 0 C-0.33 1.32 -0.66 2.64 -1 4 C-1.66 4 -2.32 4 -3 4 C-3 4.66 -3 5.32 -3 6 C-6.47973473 7.73986737 -10.27425002 6.70995561 -14 6 C-16.45673727 5.15577574 -18.65954062 4.14533119 -21 3 C-21 2.34 -21 1.68 -21 1 C-20.02160156 1.03480469 -20.02160156 1.03480469 -19.0234375 1.0703125 C-12.50709194 1.20486831 -6.12998365 -1.80293637 0 0 Z " fill="#E9E9E8" transform="translate(143,139)"/>
<path d="M0 0 C2.66666667 2.66666667 5.33333333 5.33333333 8 8 C7.01 8.33 6.02 8.66 5 9 C5.66 10.32 6.32 11.64 7 13 C0.89357521 13.78287497 -3.00459579 11.10825151 -8 8 C-8 7.67 -8 7.34 -8 7 C-6.35 7 -4.7 7 -3 7 C-3 6.34 -3 5.68 -3 5 C-2.34 5 -1.68 5 -1 5 C-0.67 3.35 -0.34 1.7 0 0 Z " fill="#E8E8E2" transform="translate(154,152)"/>
<path d="M0 0 C0.33 0 0.66 0 1 0 C1.3152595 5.98993047 0.68219822 9.63560356 -2 15 C-2.33 15 -2.66 15 -3 15 C-3 13.02 -3 11.04 -3 9 C-4.43791516 9.14168137 -5.8753237 9.28851043 -7.3125 9.4375 C-8.11300781 9.51871094 -8.91351563 9.59992188 -9.73828125 9.68359375 C-12.16087179 9.95265693 -12.16087179 9.95265693 -15 11 C-15 11.763125 -15 12.52625 -15 13.3125 C-15 15.20833333 -15 17.10416667 -15 19 C-17.31 16.69 -19.62 14.38 -22 12 C-15.22785545 7.48523697 -7.97711521 6.61401055 0 7 C0 4.69 0 2.38 0 0 Z " fill="#D7A175" transform="translate(211,165)"/>
<path d="M0 0 C-0.51405169 4.96916636 -1.23384882 9.29026351 -3 14 C-3.66 14 -4.32 14 -5 14 C-5.33 12.68 -5.66 11.36 -6 10 C-6.7425 10.474375 -7.485 10.94875 -8.25 11.4375 C-10.64178568 12.79646914 -12.36673854 13.42045741 -15 14 C-3.28571429 0 -3.28571429 0 0 0 Z " fill="#DDDCDC" transform="translate(220,36)"/>
<path d="M0 0 C0.33 0 0.66 0 1 0 C1.6822275 11.23780302 -0.470575 20.411725 -4 31 C-4.66 31 -5.32 31 -6 31 C-5.34 23.08 -4.68 15.16 -4 7 C-3.67 7 -3.34 7 -3 7 C-2.67 8.65 -2.34 10.3 -2 12 C-1.34 12 -0.68 12 0 12 C0 8.04 0 4.08 0 0 Z " fill="#C7C4C3" transform="translate(192,118)"/>
<path d="M0 0 C2 2 2 2 2.1953125 5.4765625 C2.18201493 6.85950968 2.15816232 8.24238654 2.125 9.625 C2.11597656 10.33140625 2.10695312 11.0378125 2.09765625 11.765625 C2.07407603 13.51056098 2.03820461 15.25532295 2 17 C1.34 17 0.68 17 0 17 C-0.33 17.66 -0.66 18.32 -1 19 C-2.2982126 13.23918159 -3.25706972 7.91260345 -3 2 C-2.34 2 -1.68 2 -1 2 C-0.67 1.34 -0.34 0.68 0 0 Z " fill="#F8F4F2" transform="translate(190,113)"/>
<path d="M0 0 C5.96351455 1.27789598 8.48417174 4.33716394 12 9 C11.01 9.33 10.02 9.66 9 10 C9 10.66 9 11.32 9 12 C7.68 12.33 6.36 12.66 5 13 C5.33 10.69 5.66 8.38 6 6 C4.02 6.99 4.02 6.99 2 8 C1.01 5.69 0.02 3.38 -1 1 C-0.67 0.67 -0.34 0.34 0 0 Z " fill="#F6F2F0" transform="translate(168,80)"/>
<path d="M0 0 C0.33 0 0.66 0 1 0 C1.95744681 21.53191489 1.95744681 21.53191489 -4 32 C-5.65 31.67 -7.3 31.34 -9 31 C-8.505 29.515 -8.505 29.515 -8 28 C-7.01 27.67 -6.02 27.34 -5 27 C-1.87419328 21.36143823 -1.31118859 15.9173482 -0.8125 9.5625 C-0.73064453 8.64017578 -0.64878906 7.71785156 -0.56445312 6.76757812 C-0.36581083 4.51240384 -0.17793147 2.25688658 0 0 Z " fill="#201C1B" transform="translate(243,169)"/>
<path d="M0 0 C0.58007812 0.40992188 1.16015625 0.81984375 1.7578125 1.2421875 C6.06084535 4.21028607 9.8686189 6.68426126 15 8 C14.54625 8.4125 14.0925 8.825 13.625 9.25 C11.94049626 11.06408095 11.00734029 12.75285627 10 15 C9.690625 14.0925 9.38125 13.185 9.0625 12.25 C6.23805045 7.79935222 2.83786383 6.72418627 -2 5 C-1.34 3.35 -0.68 1.7 0 0 Z " fill="#22201F" transform="translate(52,196)"/>
<path d="M0 0 C0.66 0 1.32 0 2 0 C1.896875 1.051875 1.79375 2.10375 1.6875 3.1875 C1.63859597 7.10888867 1.63859597 7.10888867 4.3125 9.75 C5.199375 10.4925 6.08625 11.235 7 12 C8 13 9 14 10 15 C7.5660481 15.87161791 6.34627069 16.11563419 3.859375 15.28515625 C-1.68851395 12.06943543 -1.68851395 12.06943543 -2.5859375 8.98828125 C-2.65551138 5.22433408 -2.09013071 3.13519606 0 0 Z " fill="#25201D" transform="translate(201,187)"/>
<path d="M0 0 C0.66 0.66 1.32 1.32 2 2 C4.89967757 2.30675232 7.71783178 2.51173371 10.625 2.625 C11.42679688 2.66367188 12.22859375 2.70234375 13.0546875 2.7421875 C15.03607556 2.83653931 17.01800645 2.91936215 19 3 C19 3.33 19 3.66 19 4 C14.58334712 4.02902168 10.16671877 4.04680608 5.75 4.0625 C3.86861328 4.07506836 3.86861328 4.07506836 1.94921875 4.08789062 C0.14130859 4.09272461 0.14130859 4.09272461 -1.703125 4.09765625 C-3.36843262 4.10551147 -3.36843262 4.10551147 -5.06738281 4.11352539 C-7.57157379 4.01658493 -9.6181156 3.73230276 -12 3 C-12 2.34 -12 1.68 -12 1 C-7.99047425 -0.33650858 -4.17983803 -0.20225023 0 0 Z " fill="#D0CCCB" transform="translate(103,213)"/>
<path d="M0 0 C0.845625 0.495 1.69125 0.99 2.5625 1.5 C6.33796832 3.14747708 8.92817548 3.24430947 13 3 C13.33 3.66 13.66 4.32 14 5 C12.4221875 5.61875 12.4221875 5.61875 10.8125 6.25 C7.41295943 7.69411378 4.78575693 9.55191058 2 12 C1.34 10.02 0.68 8.04 0 6 C0.66 5.67 1.32 5.34 2 5 C1.34 3.35 0.68 1.7 0 0 Z " fill="#E7E3E0" transform="translate(201,199)"/>
<path d="M0 0 C1.32 0 2.64 0 4 0 C4.96661363 3.12180401 4.98988909 5.52083795 4.5625 8.75 C4.46066406 9.54921875 4.35882813 10.3484375 4.25390625 11.171875 C4.12822266 12.07679688 4.12822266 12.07679688 4 13 C1.525 12.01 1.525 12.01 -1 11 C-1.14285714 3.57142857 -1.14285714 3.57142857 0 0 Z " fill="#F7F6F3" transform="translate(202,133)"/>
<path d="M0 0 C8.74566474 7.14884393 8.74566474 7.14884393 11 11 C10.78947368 17.21052632 10.78947368 17.21052632 8 20 C7.26167392 15.67551867 6.60825035 11.34464536 6 7 C5.071875 6.7834375 5.071875 6.7834375 4.125 6.5625 C2 6 2 6 0 5 C0 3.35 0 1.7 0 0 Z " fill="#F1E6D8" transform="translate(188,176)"/>
<path d="M0 0 C-0.99 1.485 -0.99 1.485 -2 3 C-2 3.99 -2 4.98 -2 6 C-1.01 6.66 -0.02 7.32 1 8 C-0.58086048 8.36504603 -2.16483907 8.71660506 -3.75 9.0625 C-4.63171875 9.25972656 -5.5134375 9.45695313 -6.421875 9.66015625 C-8.98679028 9.99825872 -10.57091639 9.81158635 -13 9 C-11 6 -11 6 -8.375 5.3125 C-7.59125 5.209375 -6.8075 5.10625 -6 5 C-5.67 4.01 -5.34 3.02 -5 2 C-6.32 1.67 -7.64 1.34 -9 1 C-5.92677456 0.08941469 -3.19902639 -0.08886184 0 0 Z " fill="#DEDDD9" transform="translate(147,190)"/>
<path d="M0 0 C1.17571451 3.67410785 1.07366746 7.16929183 1 11 C2.32 11.66 3.64 12.32 5 13 C5 10.03 5 7.06 5 4 C5.33 4 5.66 4 6 4 C6.06058594 4.61488281 6.12117187 5.22976562 6.18359375 5.86328125 C6.26738281 6.67152344 6.35117188 7.47976562 6.4375 8.3125 C6.51871094 9.11300781 6.59992188 9.91351563 6.68359375 10.73828125 C6.95265693 13.16087179 6.95265693 13.16087179 8 16 C7.34 16 6.68 16 6 16 C5.67 16.66 5.34 17.32 5 18 C5 17.34 5 16.68 5 16 C3.02 16.99 3.02 16.99 1 18 C-1.55903682 13.20180597 -1.38612745 8.29802777 -1 3 C-0.67 2.01 -0.34 1.02 0 0 Z " fill="#CAC9C5" transform="translate(201,133)"/>
<path d="M0 0 C3 1 3 1 4 3 C5.32 3 6.64 3 8 3 C8.66 3.66 9.32 4.32 10 5 C5.82262526 6.59138085 2.46839215 7.21278058 -2 7 C-2.6875 5.1875 -2.6875 5.1875 -3 3 C-1.5625 1.25 -1.5625 1.25 0 0 Z " fill="#F4F1EC" transform="translate(147,190)"/>
<path d="M0 0 C0 0.66 0 1.32 0 2 C-3.43048652 2.92432925 -6.86990417 3.80944718 -10.3125 4.6875 C-11.77719727 5.08291992 -11.77719727 5.08291992 -13.27148438 5.48632812 C-14.67817383 5.83920898 -14.67817383 5.83920898 -16.11328125 6.19921875 C-16.97735596 6.42440186 -17.84143066 6.64958496 -18.73168945 6.8815918 C-21 7 -21 7 -22.80541992 5.55004883 C-23.19963135 5.03853271 -23.59384277 4.5270166 -24 4 C-20.93929066 3.32492934 -17.8761791 2.66145078 -14.8125 2 C-13.51602539 1.71382812 -13.51602539 1.71382812 -12.19335938 1.421875 C-11.35224609 1.24140625 -10.51113281 1.0609375 -9.64453125 0.875 C-8.48981323 0.62363281 -8.48981323 0.62363281 -7.31176758 0.3671875 C-4.83939753 -0.02550915 -2.49924191 -0.06185285 0 0 Z " fill="#282521" transform="translate(166,194)"/>
<path d="M0 0 C0.33 1.32 0.66 2.64 1 4 C-1.31 4 -3.62 4 -6 4 C-6 4.33 -6 4.66 -6 5 C-7.65 5 -9.3 5 -11 5 C-11 3.35 -11 1.7 -11 0 C-6.98195309 -0.84098656 -3.98196457 -1.05404945 0 0 Z " fill="#F8F7F7" transform="translate(114,199)"/>
<path d="M0 0 C0 0.66 0 1.32 0 2 C-8.70355679 4.48472508 -16.02686281 5.34192863 -25 4 C-25 3.67 -25 3.34 -25 3 C-21.95919579 2.49420286 -18.91753354 1.99519241 -15.875 1.5 C-14.59109375 1.28537109 -14.59109375 1.28537109 -13.28125 1.06640625 C-8.80328495 0.34304266 -4.55436565 -0.17918816 0 0 Z " fill="#0A0706" transform="translate(163,184)"/>
<path d="M0 0 C0.33 0 0.66 0 1 0 C1.22354724 2.37443423 1.429163 4.74825095 1.625 7.125 C1.68945312 7.79015625 1.75390625 8.4553125 1.8203125 9.140625 C2.17108382 13.61295935 1.66747654 16.85512973 0 21 C-0.37125 22.11375 -0.7425 23.2275 -1.125 24.375 C-1.41375 25.24125 -1.7025 26.1075 -2 27 C-2.99 27 -3.98 27 -5 27 C-4.01 22.71 -3.02 18.42 -2 14 C-1.67 14 -1.34 14 -1 14 C-0.67 9.38 -0.34 4.76 0 0 Z " fill="#211E20" transform="translate(194,117)"/>
<path d="M0 0 C0.33 0 0.66 0 1 0 C1.0825 0.94875 1.165 1.8975 1.25 2.875 C1.65022151 6.06376205 1.65022151 6.06376205 3.875 7.3125 C4.57625 7.539375 5.2775 7.76625 6 8 C6.99 8.33 7.98 8.66 9 9 C8.67 9.99 8.34 10.98 8 12 C5.125 12.625 5.125 12.625 2 13 C0 11 0 11 -0.1953125 8.3984375 C-0.17210937 7.40070313 -0.14890625 6.40296875 -0.125 5.375 C-0.10695312 4.37210938 -0.08890625 3.36921875 -0.0703125 2.3359375 C-0.04710937 1.56507813 -0.02390625 0.79421875 0 0 Z " fill="#1A1918" transform="translate(208,137)"/>
<path d="M0 0 C-5.04608375 3.36405584 -11.6239313 3.50872268 -17.56640625 2.61328125 C-19.39837209 2.15119326 -21.2041865 1.58709287 -23 1 C-23 0.67 -23 0.34 -23 0 C-20.10450497 -0.1954384 -17.20891002 -0.38161395 -14.3125 -0.5625 C-13.49587891 -0.61857422 -12.67925781 -0.67464844 -11.83789062 -0.73242188 C-7.70485877 -0.98341571 -4.04175718 -1.11127743 0 0 Z " fill="#3A3530" transform="translate(58,213)"/>
<path d="M0 0 C5.0302076 0.52537724 10.01885239 1.10594786 15 2 C15 2.33 15 2.66 15 3 C14.38511719 3.01417969 13.77023438 3.02835938 13.13671875 3.04296875 C10.66500527 3.18882744 8.40322852 3.39493183 6 4 C3.8613923 6.38987933 3.8613923 6.38987933 3 9 C1.35 8.67 -0.3 8.34 -2 8 C-0.68 7.67 0.64 7.34 2 7 C1.67 6.01 1.34 5.02 1 4 C1.66 4 2.32 4 3 4 C2.01 2.68 1.02 1.36 0 0 Z " fill="#DBDCD9" transform="translate(87,176)"/>
<path d="M0 0 C1.32 0 2.64 0 4 0 C6.09230769 4.43076923 6.09230769 4.43076923 5.625 7.3125 C5.41875 7.869375 5.2125 8.42625 5 9 C4.01 8.67 3.02 8.34 2 8 C2 9.65 2 11.3 2 13 C1.67 13 1.34 13 1 13 C0.63901937 11.02206479 0.28638652 9.04260427 -0.0625 7.0625 C-0.25972656 5.96035156 -0.45695313 4.85820312 -0.66015625 3.72265625 C-0.77230469 2.82417969 -0.88445312 1.92570313 -1 1 C-0.67 0.67 -0.34 0.34 0 0 Z " fill="#D7D7D6" transform="translate(170,143)"/>
<path d="M0 0 C3.3 0 6.6 0 10 0 C10 1.32 10 2.64 10 4 C9 5 9 5 6.125 5.375 C4.578125 5.189375 4.578125 5.189375 3 5 C1.125 2.5 1.125 2.5 0 0 Z " fill="#F5F3EF" transform="translate(158,160)"/>
<path d="M0 0 C0.53625 0.721875 1.0725 1.44375 1.625 2.1875 C3.94983077 5.11543424 3.94983077 5.11543424 7.0625 7.5 C9.86822037 9.88784712 11.50371374 11.65536012 13 15 C12.67 15.99 12.34 16.98 12 18 C11.505 17.34 11.01 16.68 10.5 16 C7.76793205 12.72151846 4.76978152 9.92301393 1.609375 7.0625 C-0.36769809 4.52877526 -0.32672793 3.13658814 0 0 Z " fill="#1C1919" transform="translate(173,77)"/>
<path d="M0 0 C1.65 0 3.3 0 5 0 C6 3 6 3 5 6 C5.66 6.33 6.32 6.66 7 7 C4.525 8.485 4.525 8.485 2 10 C0.68373308 6.38026598 0 3.90432869 0 0 Z " fill="#F2EEEC" transform="translate(178,94)"/>
<path d="M0 0 C0.680625 0.70125 1.36125 1.4025 2.0625 2.125 C5.20780513 5.27934337 8.5888386 8.13934304 12 11 C11.34 11.66 10.68 12.32 10 13 C9.34 12.34 8.68 11.68 8 11 C7.01 11.33 6.02 11.66 5 12 C4.16180842 10.37750059 3.3295884 8.75191503 2.5 7.125 C2.0359375 6.22007812 1.571875 5.31515625 1.09375 4.3828125 C0 2 0 2 0 0 Z " fill="#221D1A" transform="translate(4,155)"/>
<path d="M0 0 C0.99 0 1.98 0 3 0 C3.66 1.32 4.32 2.64 5 4 C5.99 3.67 6.98 3.34 8 3 C8.6875 4.8125 8.6875 4.8125 9 7 C8.01 7.99 7.02 8.98 6 10 C3.69 7.69 1.38 5.38 -1 3 C-0.67 2.01 -0.34 1.02 0 0 Z " fill="#E8E4E3" transform="translate(166,83)"/>
<path d="M0 0 C4.455 0.99 4.455 0.99 9 2 C9 2.66 9 3.32 9 4 C9.598125 4.103125 10.19625 4.20625 10.8125 4.3125 C13.28243264 5.08876455 14.32251235 6.07088921 16 8 C15.01 8.33 14.02 8.66 13 9 C10.65195878 7.78942831 8.51878826 6.5544262 6.3125 5.125 C5.70599609 4.74730469 5.09949219 4.36960938 4.47460938 3.98046875 C2.95979484 3.02284696 1.47672249 2.01537837 0 1 C0 0.67 0 0.34 0 0 Z " fill="#312D29" transform="translate(101,236)"/>
<path d="M0 0 C3.85025879 0.60355408 6.86101159 1.76772603 10.3125 3.5625 C11.19550781 4.01753906 12.07851562 4.47257813 12.98828125 4.94140625 C13.65214844 5.29074219 14.31601563 5.64007813 15 6 C14.67 6.66 14.34 7.32 14 8 C12.02 8 10.04 8 8 8 C7.67 7.01 7.34 6.02 7 5 C6.34 4.835 5.68 4.67 5 4.5 C4.34 4.335 3.68 4.17 3 4 C2.67 3.01 2.34 2.02 2 1 C1.34 0.67 0.68 0.34 0 0 Z " fill="#191919" transform="translate(68,176)"/>
<path d="M0 0 C0.33 0 0.66 0 1 0 C1.3152595 5.98993047 0.68219822 9.63560356 -2 15 C-2.33 15 -2.66 15 -3 15 C-3 13.02 -3 11.04 -3 9 C-5.31 9 -7.62 9 -10 9 C-9.67 8.34 -9.34 7.68 -9 7 C-6.03 7 -3.06 7 0 7 C0 4.69 0 2.38 0 0 Z " fill="#BB997E" transform="translate(211,165)"/>
<path d="M0 0 C0.99 0 1.98 0 3 0 C2.42647107 3.87132028 0.51295648 6.08172796 -2 9 C-2 8.34 -2 7.68 -2 7 C-3.32 7.99 -4.64 8.98 -6 10 C-6.66 8.35 -7.32 6.7 -8 5 C-6.02 5 -4.04 5 -2 5 C-1.34 3.35 -0.68 1.7 0 0 Z " fill="#DDB28B" transform="translate(205,180)"/>
<path d="M0 0 C2.25 -0.3125 2.25 -0.3125 5 0 C7.3125 2.5 7.3125 2.5 9 5 C7.35 5.66 5.7 6.32 4 7 C2 5.1875 2 5.1875 0 3 C0 2.01 0 1.02 0 0 Z " fill="#ECECEB" transform="translate(164,138)"/>
<path d="M0 0 C0.33 0.99 0.66 1.98 1 3 C-1.97 3 -4.94 3 -8 3 C-7.67 4.65 -7.34 6.3 -7 8 C-7.66 8 -8.32 8 -9 8 C-9.33 5.69 -9.66 3.38 -10 1 C-6.78548731 -0.60725635 -3.56387464 -0.05748185 0 0 Z " fill="#20211C" transform="translate(161,140)"/>
<path d="M0 0 C-0.33 0.66 -0.66 1.32 -1 2 C-3.8359375 2.51953125 -3.8359375 2.51953125 -7.375 2.8125 C-8.53773438 2.92207031 -9.70046875 3.03164062 -10.8984375 3.14453125 C-14 3 -14 3 -15.9140625 1.51171875 C-16.27242188 1.01285156 -16.63078125 0.51398438 -17 0 C-14.72979256 -0.19493195 -12.45879711 -0.38070418 -10.1875 -0.5625 C-8.92292969 -0.66691406 -7.65835938 -0.77132812 -6.35546875 -0.87890625 C-3 -1 -3 -1 0 0 Z " fill="#211C19" transform="translate(142,240)"/>
<path d="M0 0 C1.05767578 0.21462891 1.05767578 0.21462891 2.13671875 0.43359375 C5.02411601 1.00477056 7.91609386 1.53905311 10.8125 2.0625 C11.78832031 2.23910156 12.76414062 2.41570312 13.76953125 2.59765625 C14.50558594 2.73042969 15.24164063 2.86320313 16 3 C16 3.33 16 3.66 16 4 C9.34058028 5.27947184 5.18453008 4.81115003 -1 2 C-0.67 1.34 -0.34 0.68 0 0 Z " fill="#2A2724" transform="translate(84,226)"/>
<path d="M0 0 C0 1.65 0 3.3 0 5 C-4 6.33333333 -8 7.66666667 -12 9 C-3.33333333 0 -3.33333333 0 0 0 Z " fill="#E1DED9" transform="translate(215,221)"/>
<path d="M0 0 C2.47253678 3.03447696 3.47426795 5.18566987 5 9 C1.37 9 -2.26 9 -6 9 C-6 8.67 -6 8.34 -6 8 C-4.35 7.67 -2.7 7.34 -1 7 C-0.67 4.69 -0.34 2.38 0 0 Z " fill="#D7D7D4" transform="translate(44,169)"/>
<path d="M0 0 C2 1 2 1 2.8515625 3.28515625 C3.10679688 4.20167969 3.36203125 5.11820313 3.625 6.0625 C3.88539062 6.98160156 4.14578125 7.90070313 4.4140625 8.84765625 C4.60742188 9.55792969 4.80078125 10.26820313 5 11 C4.01 11 3.02 11 2 11 C1.67 11.99 1.34 12.98 1 14 C-0.20568053 9.32798795 -0.09382426 4.78503708 0 0 Z " fill="#C4C3C7" transform="translate(52,137)"/>
<path d="M0 0 C0.66 0.33 1.32 0.66 2 1 C2.4726477 9.19256018 2.4726477 9.19256018 0.5 12.5625 C0.005 13.036875 -0.49 13.51125 -1 14 C-2.35401611 11.29196778 -1.91421523 9.43517683 -1.625 6.4375 C-1.53476563 5.44621094 -1.44453125 4.45492187 -1.3515625 3.43359375 C-1 1 -1 1 0 0 Z " fill="#292826" transform="translate(218,133)"/>
<path d="M0 0 C1 3 1 3 1 5 C1.99 5.33 2.98 5.66 4 6 C3.34 7.65 2.68 9.3 2 11 C0.02 10.01 -1.96 9.02 -4 8 C-2.87548273 5.0280615 -1.77706209 2.66559313 0 0 Z " fill="#DAD8D7" transform="translate(206,125)"/>
<path d="M0 0 C3.63 1.98 7.26 3.96 11 6 C11 6.99 11 7.98 11 9 C9.948125 8.360625 8.89625 7.72125 7.8125 7.0625 C4.89171588 5.38245548 2.3828257 4.41003948 -1 4 C-0.67 2.68 -0.34 1.36 0 0 Z " fill="#211C1C" transform="translate(153,78)"/>
<path d="M0 0 C0.99 0.66 1.98 1.32 3 2 C3.375 5 3.375 5 3 8 C2.01 8.66 1.02 9.32 0 10 C-2 7 -2 7 -1.6875 4.4375 C-1 2 -1 2 0 0 Z " fill="#EBE7E2" transform="translate(204,187)"/>
<path d="M0 0 C1.61648437 0.04060547 1.61648437 0.04060547 3.265625 0.08203125 C4.08546875 0.11683594 4.9053125 0.15164062 5.75 0.1875 C6.08 1.1775 6.41 2.1675 6.75 3.1875 C1.14 3.1875 -4.47 3.1875 -10.25 3.1875 C-5.93072606 -0.05195545 -5.09798489 -0.16623864 0 0 Z " fill="#211D1A" transform="translate(79.25,19.8125)"/>
<path d="M0 0 C3.96 0 7.92 0 12 0 C11.01 0.495 11.01 0.495 10 1 C10 2.32 10 3.64 10 5 C10.99 5.66 11.98 6.32 13 7 C8.94393835 6.53199289 5.53411321 6.12046792 2 4 C3.98 3.34 5.96 2.68 8 2 C5.36 1.67 2.72 1.34 0 1 C0 0.67 0 0.34 0 0 Z " fill="#D5D0CC" transform="translate(101,232)"/>
<path d="M0 0 C0 0.99 0 1.98 0 3 C-4.67201205 4.20568053 -9.21496292 4.09382426 -14 4 C-11.36505677 2.24337118 -9.96001018 1.58136607 -7 0.875 C-6.319375 0.70742187 -5.63875 0.53984375 -4.9375 0.3671875 C-3 0 -3 0 0 0 Z " fill="#1F1B18" transform="translate(139,214)"/>
<path d="M0 0 C0.33 0 0.66 0 1 0 C1.33 2.31 1.66 4.62 2 7 C-0.35968744 9.09749995 -1.54616994 9.96905704 -4.75 10.1875 C-5.4925 10.125625 -6.235 10.06375 -7 10 C-7 9.34 -7 8.68 -7 8 C-5.35 7.67 -3.7 7.34 -2 7 C-1.34 4.69 -0.68 2.38 0 0 Z " fill="#21201E" transform="translate(169,150)"/>
<path d="M0 0 C-2.55270089 2.55270089 -4.46726975 2.91363069 -8.01464844 3.11352539 C-8.7059082 3.10828857 -9.39716797 3.10305176 -10.109375 3.09765625 C-10.86347656 3.09443359 -11.61757812 3.09121094 -12.39453125 3.08789062 C-13.17183594 3.07951172 -13.94914063 3.07113281 -14.75 3.0625 C-15.54277344 3.05798828 -16.33554688 3.05347656 -17.15234375 3.04882812 C-19.10159508 3.03708565 -21.05080738 3.01915146 -23 3 C-23 2.67 -23 2.34 -23 2 C-17.72 2 -12.44 2 -7 2 C-7 1.34 -7 0.68 -7 0 C-3.98968256 -0.93423645 -3.13349732 -1.04449911 0 0 Z " fill="#201D1C" transform="translate(189,221)"/>
<path d="M0 0 C3.63 0 7.26 0 11 0 C11 0.66 11 1.32 11 2 C13.31 2 15.62 2 18 2 C14.40338336 4.32824459 12.01097772 4.00199595 7.875 3.25 C6.82054688 3.06953125 5.76609375 2.8890625 4.6796875 2.703125 C2 2 2 2 0 0 Z " fill="#19191A" transform="translate(90,187)"/>
<path d="M0 0 C1.8125 2.1875 1.8125 2.1875 3 4 C2.67 4.66 2.34 5.32 2 6 C0 5 0 5 -1 2 C-3.01508358 1.26676204 -3.01508358 1.26676204 -5 1 C-5 0.34 -5 -0.32 -5 -1 C-7.64 -1 -10.28 -1 -13 -1 C-13 -1.33 -13 -1.66 -13 -2 C-4.35830153 -3.61116412 -4.35830153 -3.61116412 0 0 Z " fill="#211D1B" transform="translate(229,24)"/>
<path d="M0 0 C0.33 0 0.66 0 1 0 C0.03644647 9.41002278 0.03644647 9.41002278 -1 14 C-3.84140969 8.69603524 -3.84140969 8.69603524 -4 6 C-2.125 2.75 -2.125 2.75 0 0 Z " fill="#DFDCD7" transform="translate(38,96)"/>
<path d="M0 0 C0.66 0.33 1.32 0.66 2 1 C0.35 4.63 -1.3 8.26 -3 12 C-3.66 12 -4.32 12 -5 12 C-5.33 12.66 -5.66 13.32 -6 14 C-6 10.80389448 -5.45328458 9.58282374 -4 6.8125 C-3.62875 6.09707031 -3.2575 5.38164063 -2.875 4.64453125 C-2.441875 3.83048828 -2.441875 3.83048828 -2 3 C-1.34 3 -0.68 3 0 3 C0 2.01 0 1.02 0 0 Z " fill="#211E1B" transform="translate(56,63)"/>
<path d="M0 0 C0 0.66 0 1.32 0 2 C-2.31 2.33 -4.62 2.66 -7 3 C-7.66 1.68 -8.32 0.36 -9 -1 C-5.79937313 -2.60031344 -3.27728194 -1.03173691 0 0 Z " fill="#DCD8D4" transform="translate(155,234)"/>
<path d="M0 0 C3.1489715 1.36911804 5.0478487 2.8752136 7.25 5.5 C8.03117188 6.41265625 8.03117188 6.41265625 8.828125 7.34375 C10 9 10 9 10 11 C8.25 10.9375 8.25 10.9375 6 10 C4.47043965 7.76067964 3.28342377 5.39572437 2 3 C1.34 2.67 0.68 2.34 0 2 C0 1.34 0 0.68 0 0 Z " fill="#1E1B1A" transform="translate(169,91)"/>
<path d="M0 0 C0.33 0 0.66 0 1 0 C1.33 5.94 1.66 11.88 2 18 C1.01 18 0.02 18 -1 18 C-0.505 9.09 -0.505 9.09 0 0 Z " fill="#C9C5C2" transform="translate(245,171)"/>
<path d="M0 0 C0 0.66 0 1.32 0 2 C4.455 2.99 4.455 2.99 9 4 C8.67 4.66 8.34 5.32 8 6 C3.82354339 6.34803805 2.17413843 5.66218062 -1 3 C-2.31836295 2.30419733 -3.64791086 1.62775567 -5 1 C-2 0 -2 0 0 0 Z " fill="#242322" transform="translate(183,169)"/>
<path d="M0 0 C1.32 0 2.64 0 4 0 C4 1.32 4 2.64 4 4 C4.66 4.33 5.32 4.66 6 5 C5.34 6.32 4.68 7.64 4 9 C3.67 8.01 3.34 7.02 3 6 C2.34 6 1.68 6 1 6 C1 4.68 1 3.36 1 2 C0.34 1.67 -0.32 1.34 -1 1 C-0.67 0.67 -0.34 0.34 0 0 Z " fill="#F6F2F0" transform="translate(156,72)"/>
<path d="M0 0 C3.3 0 6.6 0 10 0 C9.67 0.66 9.34 1.32 9 2 C9.66 2.66 10.32 3.32 11 4 C8.69 4.33 6.38 4.66 4 5 C4.33 3.68 4.66 2.36 5 1 C3.35 1 1.7 1 0 1 C0 0.67 0 0.34 0 0 Z " fill="#0F0D0C" transform="translate(102,205)"/>
<path d="M0 0 C0.99 1.32 1.98 2.64 3 4 C2.34 4.66 1.68 5.32 1 6 C1.66 6.33 2.32 6.66 3 7 C2.67 7.99 2.34 8.98 2 10 C1.01 10 0.02 10 -1 10 C-2.46726798 6.18510326 -1.43336419 3.70988378 0 0 Z " fill="#EDE8E4" transform="translate(243,189)"/>
<path d="M0 0 C3.3 0.33 6.6 0.66 10 1 C9.67 2.32 9.34 3.64 9 5 C6.03 4.01 3.06 3.02 0 2 C0 1.34 0 0.68 0 0 Z " fill="#C6C6C8" transform="translate(122,140)"/>
<path d="M0 0 C1.64826111 2.96687001 2.44271087 5.65626525 3 9 C1.68 9.33 0.36 9.66 -1 10 C-2.15837626 5.94568308 -1.83691257 3.78187881 0 0 Z " fill="#D5D3D1" transform="translate(220,124)"/>
<path d="M0 0 C0.53625 0.2475 1.0725 0.495 1.625 0.75 C0.635 1.08 -0.355 1.41 -1.375 1.75 C-1.705 2.74 -2.035 3.73 -2.375 4.75 C-5.4375 5.9375 -5.4375 5.9375 -8.375 6.75 C-8.375 5.76 -8.375 4.77 -8.375 3.75 C-3.35945596 -0.35362694 -3.35945596 -0.35362694 0 0 Z " fill="#1E1A17" transform="translate(104.375,104.25)"/>
<path d="M0 0 C1.53508028 2.43338652 2.03088304 3.67124507 1.7578125 6.578125 C1.44457031 7.90070313 1.44457031 7.90070313 1.125 9.25 C0.92132813 10.14203125 0.71765625 11.0340625 0.5078125 11.953125 C0.34023437 12.62859375 0.17265625 13.3040625 0 14 C-2 12 -2 12 -2.01171875 9.6875 C-1.90472656 8.800625 -1.79773438 7.91375 -1.6875 7 C-1.58824219 6.113125 -1.48898438 5.22625 -1.38671875 4.3125 C-1 2 -1 2 0 0 Z " fill="#201C1C" transform="translate(226,59)"/>
<path d="M0 0 C0.99 0.33 1.98 0.66 3 1 C2.34 2.98 1.68 4.96 1 7 C-0.32 6.67 -1.64 6.34 -3 6 C-2.42655063 3.13275314 -2.1385485 2.1385485 0 0 Z " fill="#FAF7F2" transform="translate(147,190)"/>
<path d="M0 0 C2.475 0.99 2.475 0.99 5 2 C5 2.99 5 3.98 5 5 C4.01 5.66 3.02 6.32 2 7 C0.5393715 4.35261084 0 3.10551666 0 0 Z " fill="#201E21" transform="translate(187,58)"/>
<path d="M0 0 C0.99 0 1.98 0 3 0 C3 0.99 3 1.98 3 3 C4.98 3 6.96 3 9 3 C9 3.33 9 3.66 9 4 C4.23692563 4.95261487 -0.1666528 5.08333357 -5 5 C-5 4.67 -5 4.34 -5 4 C-3.35 3.67 -1.7 3.34 0 3 C0 2.01 0 1.02 0 0 Z " fill="#0C0807" transform="translate(123,226)"/>
<path d="M0 0 C0 0.66 0 1.32 0 2 C-3.3 2.66 -6.6 3.32 -10 4 C-10 3.34 -10 2.68 -10 2 C-10.66 1.67 -11.32 1.34 -12 1 C-7.93631321 0.22596442 -4.13574827 -0.0984702 0 0 Z " fill="#32302D" transform="translate(163,184)"/>
<path d="M0 0 C-0.33 1.65 -0.66 3.3 -1 5 C-2.32 5 -3.64 5 -5 5 C-5 4.34 -5 3.68 -5 3 C-5.66 3 -6.32 3 -7 3 C-7 2.34 -7 1.68 -7 1 C-4.53721199 -0.231394 -2.7204945 -0.07159196 0 0 Z " fill="#F2F3F0" transform="translate(90,178)"/>
<path d="M0 0 C0.99 0 1.98 0 3 0 C3 0.66 3 1.32 3 2 C7.455 1.505 7.455 1.505 12 1 C8.3750203 2.81248985 6.62740416 3.31888915 2.75 3.625 C1.85796875 3.69976562 0.9659375 3.77453125 0.046875 3.8515625 C-0.62859375 3.90054688 -1.3040625 3.94953125 -2 4 C-1.34 2.68 -0.68 1.36 0 0 Z " fill="#0D0C0C" transform="translate(160,170)"/>
<path d="M0 0 C0.33 0 0.66 0 1 0 C0.88601335 1.62580966 0.75844341 3.25067157 0.625 4.875 C0.52058594 6.23238281 0.52058594 6.23238281 0.4140625 7.6171875 C0 10 0 10 -2 12 C-3.10844919 8.67465243 -2.84454356 6.37817425 -2 3 C-1.34 3 -0.68 3 0 3 C0 2.01 0 1.02 0 0 Z " fill="#1A1919" transform="translate(219,46)"/>
<path d="M0 0 C2.31 1.98 4.62 3.96 7 6 C5.68 6.33 4.36 6.66 3 7 C2.01 6.34 1.02 5.68 0 5 C-0.1875 2.375 -0.1875 2.375 0 0 Z " fill="#FBEBD4" transform="translate(188,176)"/>
<path d="M0 0 C1.32 0.33 2.64 0.66 4 1 C4 1.66 4 2.32 4 3 C5.32 3.66 6.64 4.32 8 5 C5.36 5.33 2.72 5.66 0 6 C0.185625 5.38125 0.37125 4.7625 0.5625 4.125 C1.23686176 1.95839822 1.23686176 1.95839822 0 0 Z " fill="#D8D7D3" transform="translate(167,159)"/>
<path d="M0 0 C2.31 0 4.62 0 7 0 C7.33 0.99 7.66 1.98 8 3 C7.01 3.99 6.02 4.98 5 6 C3.35 4.02 1.7 2.04 0 0 Z " fill="#DFDAD6" transform="translate(7,158)"/>
<path d="M0 0 C2 1 2 1 3.125 3.75 C3.91973395 6.70186896 4.17810598 8.97219837 4 12 C3.34 12 2.68 12 2 12 C0.70756464 7.8803623 -0.26252625 4.33168317 0 0 Z " fill="#1A1918" transform="translate(39,151)"/>
<path d="M0 0 C0.33 0.66 0.66 1.32 1 2 C0.22265625 3.9453125 0.22265625 3.9453125 -0.9375 6.125 C-1.31777344 6.84945312 -1.69804688 7.57390625 -2.08984375 8.3203125 C-2.39019531 8.87460938 -2.69054688 9.42890625 -3 10 C-3.66 10 -4.32 10 -5 10 C-4.55090939 8.51800098 -4.09043436 7.03944764 -3.625 5.5625 C-3.36976562 4.73878906 -3.11453125 3.91507812 -2.8515625 3.06640625 C-2 1 -2 1 0 0 Z " fill="#1E1C19" transform="translate(45,86)"/>
<path d="M0 0 C1.22589844 0.29197266 1.22589844 0.29197266 2.4765625 0.58984375 C3.41628906 0.82380859 3.41628906 0.82380859 4.375 1.0625 C4.375 1.7225 4.375 2.3825 4.375 3.0625 C3.116875 2.93875 1.85875 2.815 0.5625 2.6875 C-0.49904297 2.58308594 -0.49904297 2.58308594 -1.58203125 2.4765625 C-3.625 2.0625 -3.625 2.0625 -6.625 0.0625 C-3.99249612 -1.25375194 -2.82320944 -0.68563658 0 0 Z " fill="#241F1C" transform="translate(150.625,229.9375)"/>
<path d="M0 0 C0.66 0 1.32 0 2 0 C2.36923077 5.53846154 2.36923077 5.53846154 0.5 7.875 C-0.2425 8.431875 -0.2425 8.431875 -1 9 C-1.09765625 2.84765625 -1.09765625 2.84765625 -1 1 C-0.67 0.67 -0.34 0.34 0 0 Z " fill="#F3F2F0" transform="translate(221,133)"/>
<path d="M0 0 C1.98 0.66 3.96 1.32 6 2 C5.67 3.32 5.34 4.64 5 6 C3.02 4.68 1.04 3.36 -1 2 C-0.67 1.34 -0.34 0.68 0 0 Z " fill="#252524" transform="translate(73,165)"/>
<path d="M0 0 C0 1.98 0 3.96 0 6 C-1.32 5.67 -2.64 5.34 -4 5 C-4 4.34 -4 3.68 -4 3 C-4.66 2.67 -5.32 2.34 -6 2 C-3 0 -3 0 0 0 Z " fill="#F9F7F4" transform="translate(175,157)"/>
<path d="M0 0 C2.66666667 2.66666667 5.33333333 5.33333333 8 8 C5.69 7.67 3.38 7.34 1 7 C0.67 4.69 0.34 2.38 0 0 Z " fill="#E1E0DC" transform="translate(154,152)"/>
<path d="M0 0 C2.38672669 2.96283313 4.7353371 5.94270509 7 9 C4 9 4 9 1.8125 7.3125 C-0.31050198 4.6038423 -0.37254569 3.35291118 0 0 Z " fill="#332F2F" transform="translate(173,77)"/>
<path d="M0 0 C2.97 0 5.94 0 9 0 C6 3 6 3 3.3125 3.1875 C2.1678125 3.0946875 2.1678125 3.0946875 1 3 C0.67 2.01 0.34 1.02 0 0 Z " fill="#FCF7F4" transform="translate(101,233)"/>
<path d="M0 0 C2.31 0.66 4.62 1.32 7 2 C5.75 3.5625 5.75 3.5625 4 5 C1.8125 4.6875 1.8125 4.6875 0 4 C0 2.68 0 1.36 0 0 Z " fill="#1F1B1A" transform="translate(154,218)"/>
<path d="M0 0 C2.31 0.33 4.62 0.66 7 1 C7 1.66 7 2.32 7 3 C3.71303767 3.79953138 2.28976808 4.09658936 -1 3 C-0.67 2.01 -0.34 1.02 0 0 Z " fill="#292826" transform="translate(131,200)"/>
<path d="M0 0 C0.33 0.99 0.66 1.98 1 3 C0.67 3.66 0.34 4.32 0 5 C-0.66 5 -1.32 5 -2 5 C-2 5.66 -2 6.32 -2 7 C-3.65 7 -5.3 7 -7 7 C-4.66666667 4.66666667 -2.33333333 2.33333333 0 0 Z " fill="#F7F5EF" transform="translate(153,152)"/>
<path d="M0 0 C0.66 0.33 1.32 0.66 2 1 C1.34 2.98 0.68 4.96 0 7 C-1.32 6.01 -2.64 5.02 -4 4 C-3.67 3.34 -3.34 2.68 -3 2 C-2.01 2 -1.02 2 0 2 C0 1.34 0 0.68 0 0 Z " fill="#E9E4DE" transform="translate(62,26)"/>
<path d="M0 0 C3.26954202 0.56371414 4.82575883 1.49962266 7 4 C6.01 4.33 5.02 4.66 4 5 C1.3125 3.5625 1.3125 3.5625 -1 2 C-0.67 1.34 -0.34 0.68 0 0 Z " fill="#282320" transform="translate(110,240)"/>
<path d="M0 0 C0.66 1.32 1.32 2.64 2 4 C1.34 4 0.68 4 0 4 C-0.33 4.99 -0.66 5.98 -1 7 C-2.68496298 6.03114628 -4.35178756 5.03013277 -6 4 C-6 3.67 -6 3.34 -6 3 C-4.35 3 -2.7 3 -1 3 C-0.67 2.01 -0.34 1.02 0 0 Z " fill="#232323" transform="translate(50,175)"/>
<path d="M0 0 C0.33 0 0.66 0 1 0 C1 2.64 1 5.28 1 8 C-0.32 8.33 -1.64 8.66 -3 9 C-2.01 6.03 -1.02 3.06 0 0 Z " fill="#FCEAD7" transform="translate(211,173)"/>
<path d="M0 0 C2.50037734 2.17424117 3.43628586 3.73045798 4 7 C3.01 7.33 2.02 7.66 1 8 C0.26919734 6.02253397 -0.39421747 4.01927511 -1 2 C-0.67 1.34 -0.34 0.68 0 0 Z " fill="#1E1D1B" transform="translate(215,126)"/>
<path d="M0 0 C2.17854707 3.2678206 3.49760034 6.38058265 5 10 C4.01 10 3.02 10 2 10 C0.68373308 6.38026598 0 3.90432869 0 0 Z " fill="#2C2B29" transform="translate(63,100)"/>
<path d="M0 0 C1.1875 1.6875 1.1875 1.6875 2 4 C0.75 6.75 0.75 6.75 -1 9 C-1.66 9 -2.32 9 -3 9 C-2.5020163 5.26512223 -2.12508244 3.18762365 0 0 Z " fill="#22221E" transform="translate(213,74)"/>
<path d="M0 0 C0.33 0.66 0.66 1.32 1 2 C1.99 2.33 2.98 2.66 4 3 C-1.75 7 -1.75 7 -4 7 C-3.67 6.01 -3.34 5.02 -3 4 C-2.34 3.67 -1.68 3.34 -1 3 C-0.67 2.01 -0.34 1.02 0 0 Z " fill="#E5E0DD" transform="translate(196,211)"/>
<path d="M0 0 C1.0625 1.875 1.0625 1.875 2 4 C1.67 4.66 1.34 5.32 1 6 C-0.65 5.67 -2.3 5.34 -4 5 C-2.68 3.35 -1.36 1.7 0 0 Z " fill="#E9E4E1" transform="translate(235,205)"/>
<path d="M0 0 C0.66 0 1.32 0 2 0 C0.25 5.75 0.25 5.75 -2 8 C-3 5 -3 5 -1.6875 2.3125 C-1.130625 1.549375 -0.57375 0.78625 0 0 Z " fill="#D7D3CE" transform="translate(228,186)"/>
<path d="M0 0 C0.99 0.33 1.98 0.66 3 1 C1.92598892 3.91517292 1.22189824 5.77810176 -1 8 C-1.33 6.68 -1.66 5.36 -2 4 C-1.34 3.67 -0.68 3.34 0 3 C0 2.01 0 1.02 0 0 Z " fill="#E6E2DF" transform="translate(49,69)"/>
<path d="M0 0 C2.625 -0.1875 2.625 -0.1875 5 0 C5.33 0.66 5.66 1.32 6 2 C3.29120665 3.35439668 0.99066732 3.06501451 -2 3 C-1.34 2.01 -0.68 1.02 0 0 Z " fill="#211D1C" transform="translate(166,242)"/>
<path d="M0 0 C1.98 1.65 3.96 3.3 6 5 C5.34 5.66 4.68 6.32 4 7 C2.35 5.02 0.7 3.04 -1 1 C-0.67 0.67 -0.34 0.34 0 0 Z " fill="#292929" transform="translate(138,152)"/>
<path d="M0 0 C1.875 0.1875 1.875 0.1875 4 1 C5.25 3.5625 5.25 3.5625 6 6 C5.01 6.495 5.01 6.495 4 7 C2.02 3.535 2.02 3.535 0 0 Z " fill="#1A1A1A" transform="translate(59,151)"/>
<path d="M0 0 C2 3 2 3 2 7 C1.01 7 0.02 7 -1 7 C-1.04254356 5.00045254 -1.04080783 2.99958364 -1 1 C-0.67 0.67 -0.34 0.34 0 0 Z " fill="#282524" transform="translate(186,119)"/>
<path d="M0 0 C1.32 0.66 2.64 1.32 4 2 C3.01 2.66 2.02 3.32 1 4 C0.34 4.66 -0.32 5.32 -1 6 C-1.66 4.68 -2.32 3.36 -3 2 C-2.01 1.34 -1.02 0.68 0 0 Z " fill="#201C19" transform="translate(92,112)"/>
<path d="M0 0 C0 0.66 0 1.32 0 2 C-3.375 2.125 -3.375 2.125 -7 2 C-7.66 1.34 -8.32 0.68 -9 0 C-5.67465243 -1.10844919 -3.37817425 -0.84454356 0 0 Z " fill="#1D1918" transform="translate(154,50)"/>
<path d="M0 0 C0.99 0 1.98 0 3 0 C3 0.99 3 1.98 3 3 C0.69 3.66 -1.62 4.32 -4 5 C-2.1875 2.5 -2.1875 2.5 0 0 Z " fill="#E4E3E1" transform="translate(209,45)"/>
</svg>
